<svg version="1.1" id="Layer_1" xmlns="http://www.w3.org/2000/svg" xmlns:xlink="http://www.w3.org/1999/xlink" x="0px" y="0px"
	 viewBox="0 0 100 100" style="enable-background:new 0 0 100 100;" xml:space="preserve">
<rect style="fill:#212121;" width="100" height="100"/>
<path style="fill:#FD8898;" d="M64.7,17.1v57.6h-8.7V74c0-12,0-24,0-36c0-2.1-0.2-4.2-0.6-6.2c-1.4-7.2-5.5-12.2-12.5-14.6
	C37,15.2,31,15,25,16.4c-4.5,1-8.4,3-11.6,6.4c-3.3,3.5-4.8,7.6-5.1,12.3c0,0.5,0,1.1,0,1.6h9c0-0.4,0-0.9,0-1.3
	c0.1-2.6,0.7-5.1,2.4-7.1c1.6-2,3.7-3.1,6.1-3.8c4-1.1,8-1.1,12-0.2c4.8,1,7.6,4,8.7,8.7c0.8,3.4,0.4,6.9,0.5,10.4
	c-0.2,0-0.3,0-0.5,0.1c-3,0.3-5.9,0.6-8.9,0.8c-3.9,0.4-7.8,0.7-11.7,1.1c-2.3,0.2-4.7,0.4-6.9,0.9C13,47.7,8.9,51.2,7,57
	c-1.6,4.8-1.7,9.7-0.1,14.6C8.8,77.2,12.6,81,18.2,83c3.8,1.3,7.7,1.7,11.7,1.3c7.7-0.8,13.4-4.6,17.1-11.4c0.3-0.5,0.5-1,0.8-1.6
	c0.1,4,0.2,7.8,0.3,11.6h25.6V25.2h20.6v-8.1H64.7z M46.9,55.9c-0.2,3.4-0.8,6.7-2.2,9.8c-2.4,5.4-6.4,8.9-12.2,10.2
	c-3.7,0.8-7.5,0.6-11.1-0.7c-3.7-1.3-5.8-3.9-5.8-7.8c-0.1-3,0-5.9,0.1-8.9c0-0.5,0.1-1,0.3-1.5c0.5-1.8,1.8-2.8,3.6-3
	c1.9-0.2,3.9-0.4,5.8-0.6c3.7-0.3,7.3-0.7,11-1c3.5-0.3,7-0.6,10.5-0.9l0,0C46.9,52.9,47,54.4,46.9,55.9z"/>
</svg>
